<?xml version="1.0" encoding="UTF-8"?>
<svg version="1.1" xmlns="http://www.w3.org/2000/svg" width="32" height="32">
<path d="M0 0 C10.56 0 21.12 0 32 0 C32 10.56 32 21.12 32 32 C21.44 32 10.88 32 0 32 C0 21.44 0 10.88 0 0 Z " fill="#07B6CD" transform="translate(0,0)"/>
<path d="M0 0 C10.56 0 21.12 0 32 0 C32 10.56 32 21.12 32 32 C21.44 32 10.88 32 0 32 C0 21.44 0 10.88 0 0 Z M3 6 C2.55721569 8.07014854 2.55721569 8.07014854 2.63671875 10.34375 C2.63736328 11.17777344 2.63800781 12.01179687 2.63867188 12.87109375 C2.65478516 13.73863281 2.67089844 14.60617187 2.6875 15.5 C2.68427734 16.36753906 2.68105469 17.23507813 2.67773438 18.12890625 C2.64432223 23.36719159 2.64432223 23.36719159 5 28 C7.17237482 28.46455834 7.17237482 28.46455834 9.68359375 28.3984375 C11.07481445 28.40423828 11.07481445 28.40423828 12.49414062 28.41015625 C13.95110352 28.39275391 13.95110352 28.39275391 15.4375 28.375 C16.40494141 28.38660156 17.37238281 28.39820312 18.36914062 28.41015625 C19.29791016 28.40628906 20.22667969 28.40242188 21.18359375 28.3984375 C22.03493896 28.39505371 22.88628418 28.39166992 23.76342773 28.38818359 C26.04785997 28.15618572 26.04785997 28.15618572 27.77612305 26.74658203 C29.30309343 24.56745852 29.38667126 23.30309428 29.3984375 20.65625 C29.40230469 19.82222656 29.40617187 18.98820312 29.41015625 18.12890625 C29.39855469 17.26136719 29.38695313 16.39382812 29.375 15.5 C29.38660156 14.63246094 29.39820312 13.76492188 29.41015625 12.87109375 C29.40435547 11.62005859 29.40435547 11.62005859 29.3984375 10.34375 C29.39505371 9.58255859 29.39166992 8.82136719 29.38818359 8.03710938 C28.88805299 5.41252462 28.16753855 4.54343175 26 3 C23.83273497 2.54057834 23.83273497 2.54057834 21.4375 2.6015625 C20.55835937 2.59769531 19.67921875 2.59382812 18.7734375 2.58984375 C17.40058594 2.60724609 17.40058594 2.60724609 16 2.625 C15.08476562 2.61339844 14.16953125 2.60179687 13.2265625 2.58984375 C11.90785156 2.59564453 11.90785156 2.59564453 10.5625 2.6015625 C9.75941406 2.60494629 8.95632812 2.60833008 8.12890625 2.61181641 C5.4469336 3.10084582 4.568933 3.78572762 3 6 Z " fill="#EDEFEF" transform="translate(0,0)"/>
<path d="M0 0 C0.33 0 0.66 0 1 0 C1.33 4.62 1.66 9.24 2 14 C3.65 14 5.3 14 7 14 C7.33 15.32 7.66 16.64 8 18 C9.65 17.67 11.3 17.34 13 17 C13 17.66 13 18.32 13 19 C14.32 19 15.64 19 17 19 C17 18.34 17 17.68 17 17 C17.66 17 18.32 17 19 17 C19 17.66 19 18.32 19 19 C20.99983534 18.20882096 20.99983534 18.20882096 23 17 C24.15570704 13.53287889 24.32835293 10.4585044 24.5625 6.8125 C24.64628906 5.54019531 24.73007812 4.26789062 24.81640625 2.95703125 C24.90728516 1.49330078 24.90728516 1.49330078 25 0 C25.33 0 25.66 0 26 0 C26.08710289 3.10398978 26.14042309 6.20766548 26.1875 9.3125 C26.21263672 10.19357422 26.23777344 11.07464844 26.26367188 11.98242188 C26.27333984 12.82998047 26.28300781 13.67753906 26.29296875 14.55078125 C26.3086792 15.33106689 26.32438965 16.11135254 26.34057617 16.9152832 C26 19 26 19 24.78271484 20.75317383 C22.46306502 22.37553094 21.00136872 22.38723786 18.18359375 22.3984375 C17.25482422 22.40230469 16.32605469 22.40617187 15.36914062 22.41015625 C14.40169922 22.39855469 13.43425781 22.38695313 12.4375 22.375 C10.98053711 22.39240234 10.98053711 22.39240234 9.49414062 22.41015625 C8.10291992 22.40435547 8.10291992 22.40435547 6.68359375 22.3984375 C5.40826782 22.39336182 5.40826782 22.39336182 4.10717773 22.38818359 C3.41180908 22.26008301 2.71644043 22.13198242 2 22 C-0.10209857 18.84685215 -0.2434761 18.13896919 -0.1953125 14.55078125 C-0.18886719 13.70322266 -0.18242188 12.85566406 -0.17578125 11.98242188 C-0.15902344 11.10134766 -0.14226562 10.22027344 -0.125 9.3125 C-0.11597656 8.41982422 -0.10695312 7.52714844 -0.09765625 6.60742188 C-0.07409748 4.40467686 -0.04120329 2.20247412 0 0 Z " fill="#1BBCD1" transform="translate(3,6)"/>
<path d="M0 0 C2.16874252 0.50603992 3.99967627 0.99983813 6 2 C6 1.34 6 0.68 6 0 C7.32 0.33 8.64 0.66 10 1 C10 2.65 10 4.3 10 6 C8.68 6.33 7.36 6.66 6 7 C6 6.34 6 5.68 6 5 C5.34 5 4.68 5 4 5 C4 5.66 4 6.32 4 7 C2.68 7 1.36 7 0 7 C0 4.69 0 2.38 0 0 Z " fill="#0E525B" transform="translate(16,18)"/>
<path d="M0 0 C0.66 0 1.32 0 2 0 C1.43040847 3.62613199 0.07625466 5.25517741 -2.5625 7.75 C-3.20316406 8.36359375 -3.84382813 8.9771875 -4.50390625 9.609375 C-5.24447266 10.29773438 -5.24447266 10.29773438 -6 11 C-10.6875 7.38671875 -10.6875 7.38671875 -12 6 C-12 5.01 -12 4.02 -12 3 C-11.401875 3.33 -10.80375 3.66 -10.1875 4 C-7.94613529 5.20787988 -7.94613529 5.20787988 -5 5 C-3.31288577 3.3540349 -1.6454378 1.68762851 0 0 Z " fill="#151E20" transform="translate(21,6)"/>
<path d="M0 0 C6.15234375 -0.09765625 6.15234375 -0.09765625 8 0 C9 1 9 1 9.0625 3.5625 C9.041875 4.366875 9.02125 5.17125 9 6 C7.68 6.33 6.36 6.66 5 7 C4.67 5.35 4.34 3.7 4 2 C3.34 2 2.68 2 2 2 C2 3.65 2 5.3 2 7 C1.67 7 1.34 7 1 7 C0.67 4.69 0.34 2.38 0 0 Z " fill="#0F4951" transform="translate(6,18)"/>
</svg>
